<svg width="32" height="32" viewBox="0 0 32 32" fill="none" xmlns="http://www.w3.org/2000/svg">
<circle cx="16" cy="16" r="16" fill="#5E3AEE"/>
<path d="M21.647 26.255L10.3529 12.9678V17.9407L17.42 26.255H21.647Z" fill="#F9F9FC"/>
<path d="M15.0895 15.2868L17.4062 18.0123C18.269 17.6273 19.0571 17.0746 19.659 16.3933C20.7965 15.1058 21.3759 13.4192 21.2698 11.7045C21.1637 9.98988 20.3808 8.38759 19.0933 7.25017C17.8058 6.11274 16.0537 5.5537 14.3391 5.6598L14.3391 8.81551C15.1968 8.76244 16.3059 9.10728 16.9499 9.67626C17.594 10.2452 17.9856 11.0467 18.0387 11.9045C18.0917 12.7622 17.8019 13.6059 17.2329 14.2499C16.6828 14.8727 15.9151 15.2168 15.0895 15.2868Z" fill="#F9F9FC"/>
<path d="M12.9411 7.29944L10.3529 8.88768V5.7112L12.9411 7.29944Z" fill="#F9F9FC"/>
</svg>
